<svg xmlns="http://www.w3.org/2000/svg" width="980" height="560" viewBox="0 0 980 560">
<style>
  .title { font: 700 24px Arial, sans-serif; fill: #111827; }
  .label { font: 600 14px Arial, sans-serif; fill: #374151; }
  .tick { font: 12px Arial, sans-serif; fill: #6b7280; }
  .legend { font: 13px Arial, sans-serif; fill: #374151; }
  .grid { stroke: #e5e7eb; stroke-width: 1; }
  .grid.soft { stroke: #eef2f7; }
  .axis { stroke: #111827; stroke-width: 1.4; }
</style>
<rect width="100%" height="100%" fill="#ffffff"/>
<text x="490.0" y="34" text-anchor="middle" class="title">NER loss por epoca</text>
<rect x="92" y="92" width="846" height="386" fill="#f8fafc" stroke="#d1d5db"/>
<line x1="92" y1="478.0" x2="938" y2="478.0" class="grid"/><text x="78" y="482.0" text-anchor="end" class="tick">0.00</text><line x1="92" y1="400.8" x2="938" y2="400.8" class="grid"/><text x="78" y="404.8" text-anchor="end" class="tick">0.42</text><line x1="92" y1="323.6" x2="938" y2="323.6" class="grid"/><text x="78" y="327.6" text-anchor="end" class="tick">0.84</text><line x1="92" y1="246.4" x2="938" y2="246.4" class="grid"/><text x="78" y="250.4" text-anchor="end" class="tick">1.26</text><line x1="92" y1="169.2" x2="938" y2="169.2" class="grid"/><text x="78" y="173.2" text-anchor="end" class="tick">1.68</text><line x1="92" y1="92.0" x2="938" y2="92.0" class="grid"/><text x="78" y="96.0" text-anchor="end" class="tick">2.10</text>
<line x1="92.0" y1="92" x2="92.0" y2="478" class="grid soft"/><text x="92.0" y="506" text-anchor="middle" class="tick">1</text><line x1="299.2" y1="92" x2="299.2" y2="478" class="grid soft"/><text x="299.2" y="506" text-anchor="middle" class="tick">13</text><line x1="523.6" y1="92" x2="523.6" y2="478" class="grid soft"/><text x="523.6" y="506" text-anchor="middle" class="tick">26</text><line x1="730.8" y1="92" x2="730.8" y2="478" class="grid soft"/><text x="730.8" y="506" text-anchor="middle" class="tick">38</text><line x1="938.0" y1="92" x2="938.0" y2="478" class="grid soft"/><text x="938.0" y="506" text-anchor="middle" class="tick">50</text>
<line x1="92" y1="92" x2="92" y2="478" class="axis"/>
<line x1="92" y1="478" x2="938" y2="478" class="axis"/>
<polyline points="92.0,129.5 109.3,241.0 126.5,297.6 143.8,301.1 161.1,298.7 178.3,339.1 195.6,368.7 212.9,363.4 230.1,378.2 247.4,400.8 264.7,409.1 281.9,414.2 299.2,428.0 316.4,429.1 333.7,436.0 351.0,439.1 368.2,441.8 385.5,446.9 402.8,444.8 420.0,445.3 437.3,449.8 454.6,451.1 471.8,454.2 489.1,456.4 506.4,462.6 523.6,456.8 540.9,463.0 558.2,455.4 575.4,461.3 592.7,463.1 610.0,466.4 627.2,464.1 644.5,466.0 661.8,465.7 679.0,466.5 696.3,469.0 713.6,469.1 730.8,466.1 748.1,469.7 765.3,468.1 782.6,469.6 799.9,470.8 817.1,470.0 834.4,470.2 851.7,471.6 868.9,472.0 886.2,468.5 903.5,471.9 920.7,470.9 938.0,468.8" fill="none" stroke="#2563eb" stroke-width="3.2" stroke-linecap="round" stroke-linejoin="round"/><circle cx="938.0" cy="468.8" r="4.5" fill="white" stroke="#2563eb" stroke-width="2.5"/><polyline points="92.0,222.8 109.3,279.6 126.5,311.6 143.8,321.9 161.1,309.0 178.3,316.5 195.6,313.4 212.9,280.7 230.1,331.7 247.4,298.4 264.7,289.7 281.9,278.3 299.2,253.7 316.4,275.2 333.7,229.4 351.0,231.4 368.2,267.4 385.5,231.4 402.8,222.5 420.0,262.3 437.3,236.2 454.6,265.9 471.8,212.9 489.1,196.5 506.4,218.5 523.6,201.0 540.9,222.1 558.2,161.2 575.4,177.7 592.7,206.8 610.0,164.6 627.2,154.7 644.5,148.4 661.8,167.0 679.0,170.6 696.3,143.6 713.6,120.6 730.8,144.2 748.1,133.4 765.3,157.8 782.6,160.6 799.9,152.5 817.1,154.5 834.4,147.8 851.7,140.0 868.9,134.9 886.2,144.9 903.5,142.9 920.7,137.8 938.0,154.6" fill="none" stroke="#dc2626" stroke-width="3.2" stroke-linecap="round" stroke-linejoin="round"/><circle cx="938.0" cy="154.6" r="4.5" fill="white" stroke="#dc2626" stroke-width="2.5"/>
<line x1="110" y1="58" x2="136" y2="58" stroke="#2563eb" stroke-width="4" stroke-linecap="round"/><text x="146" y="63" class="legend">train loss</text><line x1="300" y1="58" x2="326" y2="58" stroke="#dc2626" stroke-width="4" stroke-linecap="round"/><text x="336" y="63" class="legend">validation loss</text>
<text x="515.0" y="536" text-anchor="middle" class="label">epoca</text>
<text x="28" y="285.0" transform="rotate(-90 28 285.0)" text-anchor="middle" class="label">loss</text>
</svg>
