<svg xmlns="http://www.w3.org/2000/svg" width="760" height="420" viewBox="0 0 760 420">
<rect width="100%" height="100%" fill="white"/>
<text x="380.0" y="24" text-anchor="middle" font-family="sans-serif" font-size="18">NER non-O accuracy</text>
<line x1="70" y1="35" x2="70" y2="360" stroke="#333"/>
<line x1="70" y1="360" x2="730" y2="360" stroke="#333"/>
<text x="18" y="50" font-family="sans-serif" font-size="12">1.0</text>
<text x="24" y="360" font-family="sans-serif" font-size="12">0</text>
<polyline points="70.0,360.0 83.5,360.0 96.9,360.0 110.4,360.0 123.9,357.8 137.3,357.8 150.8,357.8 164.3,346.1 177.8,346.9 191.2,330.8 204.7,310.3 218.2,289.9 231.6,293.5 245.1,262.1 258.6,258.5 272.0,256.3 285.5,254.1 299.0,262.9 312.4,208.1 325.9,244.6 339.4,199.3 352.9,235.8 366.3,219.0 379.8,214.7 393.3,206.6 406.7,208.8 420.2,209.6 433.7,179.6 447.1,192.8 460.6,190.6 474.1,167.9 487.6,159.2 501.0,194.2 514.5,154.0 528.0,164.3 541.4,141.6 554.9,154.0 568.4,154.0 581.8,151.9 595.3,148.9 608.8,132.1 622.2,141.6 635.7,120.4 649.2,118.3 662.7,125.6 676.1,111.7 689.6,113.1 703.1,111.7 716.5,97.8 730.0,116.8" fill="none" stroke="#1f77b4" stroke-width="3"/>
<polyline points="70.0,360.0 83.5,360.0 96.9,360.0 110.4,360.0 123.9,360.0 137.3,360.0 150.8,360.0 164.3,345.2 177.8,352.6 191.2,352.6 204.7,337.8 218.2,315.7 231.6,308.3 245.1,300.9 258.6,293.5 272.0,293.5 285.5,293.5 299.0,293.5 312.4,249.2 325.9,293.5 339.4,241.8 352.9,286.1 366.3,271.4 379.8,264.0 393.3,241.8 406.7,278.8 420.2,271.4 433.7,264.0 447.1,271.4 460.6,271.4 474.1,264.0 487.6,264.0 501.0,271.4 514.5,249.2 528.0,256.6 541.4,249.2 554.9,256.6 568.4,256.6 581.8,256.6 595.3,256.6 608.8,241.8 622.2,256.6 635.7,241.8 649.2,234.4 662.7,256.6 676.1,241.8 689.6,249.2 703.1,249.2 716.5,227.0 730.0,249.2" fill="none" stroke="#d62728" stroke-width="3"/>
<text x="70" y="398" font-family="sans-serif" font-size="13" fill="#1f77b4">train_non_o_acc</text>
<text x="225" y="398" font-family="sans-serif" font-size="13" fill="#d62728">val_non_o_acc</text>
<text x="380.0" y="398" text-anchor="middle" font-family="sans-serif" font-size="13">epoch</text>
</svg>
