<svg xmlns="http://www.w3.org/2000/svg" width="760" height="420" viewBox="0 0 760 420">
<rect width="100%" height="100%" fill="white"/>
<text x="380.0" y="24" text-anchor="middle" font-family="sans-serif" font-size="18">NER non-O accuracy</text>
<line x1="70" y1="35" x2="70" y2="360" stroke="#333"/>
<line x1="70" y1="360" x2="730" y2="360" stroke="#333"/>
<text x="18" y="50" font-family="sans-serif" font-size="12">1.0</text>
<text x="24" y="360" font-family="sans-serif" font-size="12">0</text>
<polyline points="70.0,215.4 83.5,239.5 96.9,207.4 110.4,160.6 123.9,165.7 137.3,109.5 150.8,102.9 164.3,106.6 177.8,81.7 191.2,66.4 204.7,59.8 218.2,60.6 231.6,56.2 245.1,46.7 258.6,45.2 272.0,46.0 285.5,43.8 299.0,40.1 312.4,38.7 325.9,38.7 339.4,37.2 352.9,39.4 366.3,40.1 379.8,40.1 393.3,38.7 406.7,37.2 420.2,37.2 433.7,37.2 447.1,37.2 460.6,37.9 474.1,37.2 487.6,37.2 501.0,37.2 514.5,36.5 528.0,37.2 541.4,37.9 554.9,37.2 568.4,37.2 581.8,37.2 595.3,37.2 608.8,36.5 622.2,36.5 635.7,36.5 649.2,35.7 662.7,36.5 676.1,35.7 689.6,36.5 703.1,35.7 716.5,35.7 730.0,35.7" fill="none" stroke="#1f77b4" stroke-width="3"/>
<polyline points="70.0,204.9 83.5,256.6 96.9,219.7 110.4,197.5 123.9,219.7 137.3,145.8 150.8,168.0 164.3,175.3 177.8,153.2 191.2,145.8 204.7,153.2 218.2,168.0 231.6,182.7 245.1,190.1 258.6,190.1 272.0,190.1 285.5,204.9 299.0,204.9 312.4,197.5 325.9,190.1 339.4,197.5 352.9,204.9 366.3,197.5 379.8,182.7 393.3,204.9 406.7,160.6 420.2,175.3 433.7,219.7 447.1,197.5 460.6,197.5 474.1,197.5 487.6,204.9 501.0,212.3 514.5,212.3 528.0,204.9 541.4,190.1 554.9,227.0 568.4,204.9 581.8,212.3 595.3,219.7 608.8,227.0 622.2,227.0 635.7,219.7 649.2,212.3 662.7,212.3 676.1,212.3 689.6,212.3 703.1,204.9 716.5,212.3 730.0,227.0" fill="none" stroke="#d62728" stroke-width="3"/>
<text x="70" y="398" font-family="sans-serif" font-size="13" fill="#1f77b4">train_non_o_acc</text>
<text x="225" y="398" font-family="sans-serif" font-size="13" fill="#d62728">val_non_o_acc</text>
<text x="380.0" y="398" text-anchor="middle" font-family="sans-serif" font-size="13">epoch</text>
</svg>
