<svg xmlns="http://www.w3.org/2000/svg" width="760" height="420" viewBox="0 0 760 420">
<rect width="100%" height="100%" fill="white"/>
<text x="380.0" y="24" text-anchor="middle" font-family="sans-serif" font-size="18">NER loss</text>
<line x1="70" y1="35" x2="70" y2="360" stroke="#333"/>
<line x1="70" y1="360" x2="730" y2="360" stroke="#333"/>
<text x="18" y="50" font-family="sans-serif" font-size="12">1.479</text>
<text x="24" y="360" font-family="sans-serif" font-size="12">0</text>
<polyline points="70.0,35.0 83.5,105.1 96.9,129.4 110.4,146.2 123.9,169.9 137.3,174.9 150.8,178.7 164.3,193.6 177.8,202.4 191.2,213.6 204.7,217.7 218.2,231.4 231.6,242.3 245.1,234.5 258.6,252.8 272.0,255.5 285.5,260.7 299.0,271.0 312.4,279.4 325.9,259.5 339.4,272.8 352.9,286.2 366.3,285.5 379.8,289.0 393.3,297.0 406.7,294.0 420.2,296.2 433.7,297.2 447.1,301.4 460.6,305.1 474.1,308.0 487.6,301.8 501.0,313.7 514.5,313.5 528.0,304.5 541.4,297.7 554.9,313.8 568.4,315.1 581.8,317.0 595.3,320.9 608.8,316.5 622.2,320.6 635.7,324.9 649.2,324.3 662.7,328.5 676.1,327.6 689.6,327.6 703.1,317.9 716.5,324.0 730.0,322.7" fill="none" stroke="#1f77b4" stroke-width="3"/>
<polyline points="70.0,107.5 83.5,149.4 96.9,163.7 110.4,164.1 123.9,161.9 137.3,164.8 150.8,170.3 164.3,174.2 177.8,169.6 191.2,170.4 204.7,177.7 218.2,174.4 231.6,172.2 245.1,173.7 258.6,174.1 272.0,169.8 285.5,169.9 299.0,177.0 312.4,164.6 325.9,169.3 339.4,154.9 352.9,147.8 366.3,155.0 379.8,152.6 393.3,143.2 406.7,159.2 420.2,157.2 433.7,139.6 447.1,153.1 460.6,150.6 474.1,147.8 487.6,129.2 501.0,134.5 514.5,108.7 528.0,148.3 541.4,80.4 554.9,130.4 568.4,125.2 581.8,120.0 595.3,105.6 608.8,117.1 622.2,107.0 635.7,114.6 649.2,92.9 662.7,106.2 676.1,96.6 689.6,67.8 703.1,94.4 716.5,123.2 730.0,92.6" fill="none" stroke="#d62728" stroke-width="3"/>
<text x="70" y="398" font-family="sans-serif" font-size="13" fill="#1f77b4">train_loss</text>
<text x="190" y="398" font-family="sans-serif" font-size="13" fill="#d62728">val_loss</text>
<text x="380.0" y="398" text-anchor="middle" font-family="sans-serif" font-size="13">epoch</text>
</svg>
